<svg xmlns="http://www.w3.org/2000/svg" viewBox="0 0 410 404" fill="none">
  <path d="M399.641 59.524c-1.154-5.076-5.697-8.541-10.896-8.541h-141.35L201.889 9.393c-2.915-3.551-8.254-4.486-12.23-2.066L11.576 101.09c-5.618 3.42-7.122 10.578-3.369 16.07l163.909 241.3c3.133 4.605 9.459 5.693 13.962 2.434l194.924-141.35c3.963-2.872 5.708-7.907 4.634-12.602L399.64 59.524Z" fill="#646CFF"/>
  <path d="M296.258 74.112c-1.072-3.555-4.852-5.679-8.508-4.847L126.186 115.97c-3.923.896-6.364 4.778-5.53 8.563l27.09 122.416c.832 3.768 4.56 6.081 8.364 5.156l114.12-27.09c3.71-.878 6.105-4.485 5.343-8.124l-19.315-92.78c-.246-1.176.398-2.35 1.54-2.77l37.56-13.69c2.776-1.012 4.305-3.962 3.702-6.826l-2.802-12.713Z" fill="#FFFFFF"/>
</svg>
